# xmcd
#
# Track frame offsets: 
#        150
#        16017
#        29852
#        48905
#        63342
#        80727
#        96460
#        112462
#        133365
#        151592
#        167240
#        180642
#        196467
#        212155
#
# Disc length: 3015 seconds
#
# Revision: 0
# Processed by: cddbd v1.4PL0 Copyright (c) Steve Scherf et al.
# Submitted via: ExactAudioCopy v0.90b4
#
DISCID=ce0bc50e
DTITLE=Dennis Parker - Snowman Blues
DYEAR=1998
DGENRE=Blues
TTITLE0=Chokin' with the Heat
TTITLE1=Cold and Reckless
TTITLE2=All I Want Is To Travel
TTITLE3=St James Infirmary
TTITLE4=Guitar King
TTITLE5=Eight Ball Run
TTITLE6=Snowman Blues
TTITLE7=Crosscut Saw
TTITLE8=Searchin' For My Baby
TTITLE9=Don't Want No Trouble
TTITLE10=Come Home Early
TTITLE11=I Done Got Over It
TTITLE12=Whiskey Headed Woman
TTITLE13=Hurry Back Good News
EXTD=
EXTT0=
EXTT1=
EXTT2=
EXTT3=
EXTT4=
EXTT5=
EXTT6=
EXTT7=
EXTT8=
EXTT9=
EXTT10=
EXTT11=
EXTT12=
EXTT13=
PLAYORDER=
